<?xml version="1.0" encoding="UTF-8"?>
<svg id="Layer_1" xmlns="http://www.w3.org/2000/svg" width="739.6" height="739.6" version="1.1" viewBox="0 0 739.6 739.6">
  <!-- Generator: Adobe Illustrator 29.5.1, SVG Export Plug-In . SVG Version: 2.1.0 Build 141)  -->
  <g>
    <g id="Layer_2">
      <polygon points="279.4 137.4 107.4 337.3 176.9 337.3 345.7 137.4 279.4 137.4" fill="#ffca00"/>
      <polygon points="719.5 337.3 547.5 137.4 481.2 137.4 650 337.3 719.5 337.3" fill="#ffca00"/>
      <polygon points="365.9 137.4 193 337.3 262.5 337.3 370.6 209.3 475.8 337.3 545.3 337.3 375.3 137.4 365.9 137.4" fill="#ffca00"/>
      <polygon points="192.2 137.4 20.1 337.3 89.6 337.3 258.4 137.4 192.2 137.4" fill="#ffca00"/>
      <polygon points="631.4 337.3 459.4 137.4 393.2 137.4 561.9 337.3 631.4 337.3" fill="#ffca00"/>
    </g>
    <g id="Layer_21" data-name="Layer_2">
      <polygon points="279.4 537.2 107.4 337.3 176.9 337.3 345.7 537.2 279.4 537.2" fill="#42b6ce"/>
      <polygon points="719.5 337.3 547.5 537.2 481.2 537.2 650 337.3 719.5 337.3" fill="#42b6ce"/>
      <polygon points="365.9 537.2 193 337.3 262.5 337.3 370.6 465.3 475.8 337.3 545.3 337.3 375.3 537.2 365.9 537.2" fill="#42b6ce"/>
      <polygon points="192.2 537.2 20.1 337.3 89.6 337.3 258.4 537.2 192.2 537.2" fill="#42b6ce"/>
      <polygon points="631.4 337.3 459.4 537.2 393.2 537.2 561.9 337.3 631.4 337.3" fill="#42b6ce"/>
    </g>
  </g>
  <path d="M397.5,491.5c2.4.3,3.6,3.2,5.3,8.4,10.2,32.1,22.8,75.1,31.7,102,2.5,6.7,7.8,6.3,14.6,4.9,4.2-.9,9.2-2.2,13.7-3.5,5.1-1.6,8.7-2.6,11.9-4.8,4.1-2.6,2.7-8,1.4-12.6-6.9-24.5-23.6-82.1-30.3-106.4-.5-2.6-1.5-5.4.4-7.1,1.1-.9,3.2-1.1,6.5-1.1,11.7.5,30.2,2.4,43.1,3.4,8.2.6,16.6,1.6,21.9,1.4,4-.2,3-1.9-.7-6.3-31.1-38.2-81-99.5-114.4-140.3-8-9.8-14.7-18-19-23.4-2.9-3.6-4.8-6-5.9-6.8-.8-.6-1.3-.4-1.7.6-.6,1.5-1,4-1.4,6-6.9,37-37.4,188.2-43.3,223.4.2,2.8,4.8-.5,6.3-1.3,15-9.4,35.6-23.1,50.7-32.7,2.9-1.7,6.1-4,9.2-4h0Z" fill="#fff" stroke="#00636b" stroke-miterlimit="10" stroke-width="17"/>
</svg>